<svg width="65" height="65" viewBox="0 0 65 65" fill="none" xmlns="http://www.w3.org/2000/svg">
<path d="M14.2251 31.6216V21.5673H10.9194V19.392H20.1516V21.5673H16.8458V31.6216H14.2251Z" fill="#C72E45"/>
<path d="M21.9355 31.6216V19.392H25.6866C28.8724 19.392 30.4654 20.5795 30.4654 22.9547C30.4654 23.7882 30.2541 24.4677 29.8316 24.9929C29.4206 25.5182 28.8953 25.9293 28.2558 26.2262L31.7329 31.6216H28.7354L26.012 26.9284H24.5561V31.6216H21.9355ZM24.5561 24.9073H25.6352C26.3317 24.9073 26.8684 24.7646 27.2452 24.4791C27.6221 24.1936 27.8105 23.7254 27.8105 23.0746C27.8105 22.5264 27.6335 22.1154 27.2795 21.8413C26.9369 21.5673 26.3888 21.4302 25.6352 21.4302H24.5561V24.9073Z" fill="#C72E45"/>
<path d="M38.0747 31.7929C36.4418 31.7929 35.2028 31.3704 34.3578 30.5254C33.5128 29.669 33.0903 28.4928 33.0903 26.997V19.392H35.7109V26.8599C35.7109 28.6755 36.516 29.5833 38.1261 29.5833C38.9711 29.5833 39.582 29.355 39.9588 28.8982C40.3356 28.43 40.524 27.7449 40.524 26.8428V19.392H43.1447V26.9627C43.1447 27.9219 42.9563 28.7669 42.5794 29.4977C42.214 30.2171 41.6545 30.7823 40.9009 31.1934C40.1472 31.5931 39.2051 31.7929 38.0747 31.7929Z" fill="#C72E45"/>
<path d="M45.9721 31.6216V19.392H53.0632V21.533H48.5927V24.205H52.772V26.3461H48.5927V29.4463H53.0632V31.6216H45.9721Z" fill="#C72E45"/>
<path d="M15.6004 47.4324L11.4554 35.2028H14.3501L16.4397 42.037C16.5197 42.311 16.6053 42.6194 16.6966 42.9619C16.788 43.3045 16.8679 43.6471 16.9364 43.9896C17.005 44.3208 17.0563 44.6062 17.0906 44.846C17.1249 44.6062 17.1762 44.3208 17.2448 43.9896C17.3133 43.6585 17.3875 43.3216 17.4674 42.9791C17.5474 42.6365 17.633 42.3282 17.7243 42.0541L19.8311 35.2028H22.7087L18.5636 47.4324H15.6004Z" fill="#C72E45"/>
<path d="M24.1685 47.4324V35.2028H31.2596V37.3438H26.7891V40.0158H30.9685V42.1569H26.7891V45.2571H31.2596V47.4324H24.1685Z" fill="#C72E45"/>
<path d="M33.6192 47.4324V35.2028H37.3703C40.5562 35.2028 42.1491 36.3903 42.1491 38.7655C42.1491 39.5991 41.9379 40.2785 41.5154 40.8037C41.1043 41.329 40.579 41.7401 39.9396 42.037L43.4166 47.4324H40.4192L37.6958 42.7393H36.2399V47.4324H33.6192ZM36.2399 40.7181H37.3189C38.0155 40.7181 38.5522 40.5754 38.929 40.2899C39.3058 40.0044 39.4943 39.5362 39.4943 38.8854C39.4943 38.3373 39.3173 37.9262 38.9633 37.6521C38.6207 37.3781 38.0726 37.241 37.3189 37.241H36.2399V40.7181Z" fill="#C72E45"/>
<path d="M47.8058 47.6037C47.0293 47.6037 46.3613 47.5466 45.8018 47.4324C45.2422 47.3182 44.7113 47.1412 44.2088 46.9015V44.5377C44.7684 44.8118 45.3736 45.0345 46.0244 45.2057C46.6753 45.3656 47.2919 45.4455 47.8743 45.4455C48.5252 45.4455 49.0105 45.3256 49.3302 45.0858C49.6614 44.846 49.8269 44.5263 49.8269 44.1267C49.8269 43.8412 49.747 43.6014 49.5871 43.4073C49.4387 43.2017 49.1818 43.0076 48.8164 42.8249C48.451 42.6308 47.9657 42.4081 47.3605 42.1569C46.7096 41.8828 46.1558 41.5917 45.699 41.2833C45.2537 40.9636 44.9111 40.5811 44.6713 40.1357C44.4315 39.679 44.3116 39.108 44.3116 38.4229C44.3116 37.6921 44.4943 37.0755 44.8597 36.573C45.2251 36.0706 45.7333 35.6881 46.3841 35.4254C47.035 35.1628 47.7887 35.0315 48.6451 35.0315C49.3873 35.0315 50.061 35.1114 50.6662 35.2713C51.2829 35.4311 51.8367 35.6196 52.3277 35.8365L51.5227 37.909C51.0316 37.6807 50.5349 37.5037 50.0325 37.3781C49.5301 37.241 49.0448 37.1725 48.5766 37.1725C48.017 37.1725 47.6003 37.281 47.3262 37.498C47.0521 37.7149 46.9151 37.9947 46.9151 38.3373C46.9151 38.6227 46.9951 38.8625 47.1549 39.0567C47.3148 39.2508 47.5774 39.4449 47.9428 39.639C48.3082 39.8331 48.805 40.0615 49.433 40.3242C50.0725 40.5868 50.6148 40.8723 51.0602 41.1806C51.5169 41.4889 51.8595 41.86 52.0879 42.2939C52.3277 42.7278 52.4476 43.2588 52.4476 43.8869C52.4476 44.5834 52.2763 45.2115 51.9337 45.771C51.5912 46.3305 51.0716 46.7758 50.3751 47.107C49.6899 47.4381 48.8335 47.6037 47.8058 47.6037Z" fill="#C72E45"/>
<path fill-rule="evenodd" clip-rule="evenodd" d="M7.46622 7.46622H57.5338V57.5338H43.0405V65H65V0H0V65H21.9595V57.5338H7.46622V7.46622Z" fill="#C72E45"/>
<path d="M23.9374 63.2432V59.7122H24.4051L24.4907 60.1931H24.5237C24.6335 60.0086 24.7806 59.8725 24.9651 59.7846C25.1539 59.6924 25.3538 59.6463 25.5646 59.6463C26.1179 59.6463 26.4781 59.8439 26.645 60.2392H26.6779C26.7965 60.0372 26.9568 59.8878 27.1588 59.7912C27.3608 59.6946 27.5782 59.6463 27.811 59.6463C28.2107 59.6463 28.5093 59.7495 28.707 59.9559C28.9046 60.1623 29.0034 60.4917 29.0034 60.9441V63.2432H28.4303V60.9704C28.4303 60.4127 28.1909 60.1338 27.7122 60.1338C27.3696 60.1338 27.1237 60.2326 26.9744 60.4302C26.8294 60.6279 26.757 60.9155 26.757 61.2933V63.2432H26.1838V60.9704C26.1838 60.4127 25.9423 60.1338 25.4592 60.1338C25.1034 60.1338 24.8575 60.2436 24.7213 60.4632C24.5852 60.6828 24.5171 60.999 24.5171 61.4118V63.2432H23.9374Z" fill="#C72E45"/>
<path d="M31.3393 63.3091C30.9133 63.3091 30.5926 63.2081 30.3774 63.0061C30.1622 62.7997 30.0546 62.4725 30.0546 62.0245V59.7122H30.641V61.985C30.641 62.5471 30.9023 62.8282 31.4249 62.8282C31.8158 62.8282 32.0859 62.7184 32.2352 62.4988C32.3889 62.2792 32.4658 61.963 32.4658 61.5502V59.7122H33.0455V63.2432H32.5712L32.4855 62.7755H32.4592C32.345 62.96 32.1869 63.0961 31.9849 63.184C31.7828 63.2674 31.5676 63.3091 31.3393 63.3091Z" fill="#C72E45"/>
<path d="M35.0559 63.3091C34.8099 63.3091 34.5969 63.2894 34.4169 63.2498C34.2412 63.2103 34.0853 63.1554 33.9491 63.0851V62.5581C34.0897 62.6284 34.2588 62.6943 34.4564 62.7557C34.6584 62.8128 34.8626 62.8414 35.0691 62.8414C35.3633 62.8414 35.5763 62.7953 35.7081 62.703C35.8398 62.6064 35.9057 62.4791 35.9057 62.3209C35.9057 62.2331 35.8816 62.1541 35.8333 62.0838C35.7849 62.0135 35.6971 61.9432 35.5697 61.873C35.4468 61.8027 35.2689 61.7237 35.0361 61.6358C34.8077 61.548 34.6123 61.4601 34.4498 61.3723C34.2873 61.2845 34.1621 61.1791 34.0743 61.0561C33.9865 60.9331 33.9425 60.775 33.9425 60.5818C33.9425 60.2831 34.0633 60.0525 34.3049 59.89C34.5508 59.7275 34.8714 59.6463 35.2667 59.6463C35.4819 59.6463 35.6817 59.6682 35.8662 59.7122C36.055 59.7561 36.2307 59.8132 36.3932 59.8834L36.1956 60.3446C36.0463 60.2831 35.8903 60.2304 35.7278 60.1865C35.5653 60.1426 35.3985 60.1206 35.2272 60.1206C34.99 60.1206 34.8077 60.1601 34.6804 60.2392C34.5574 60.3139 34.4959 60.4171 34.4959 60.5488C34.4959 60.6498 34.5245 60.7333 34.5816 60.7992C34.6387 60.865 34.7331 60.9309 34.8648 60.9968C35.001 61.0627 35.1811 61.1373 35.405 61.2208C35.629 61.3042 35.8201 61.3899 35.9782 61.4777C36.1363 61.5655 36.2571 61.6731 36.3405 61.8005C36.424 61.9235 36.4657 62.0794 36.4657 62.2682C36.4657 62.6108 36.3383 62.8699 36.0836 63.0456C35.8289 63.2213 35.4863 63.3091 35.0559 63.3091Z" fill="#C72E45"/>
<path d="M37.6154 59.1259C37.5187 59.1259 37.4375 59.0973 37.3716 59.0402C37.3057 58.9787 37.2728 58.8843 37.2728 58.7569C37.2728 58.6296 37.3057 58.5373 37.3716 58.4802C37.4375 58.4188 37.5187 58.388 37.6154 58.388C37.7032 58.388 37.7801 58.4188 37.8459 58.4802C37.9162 58.5373 37.9513 58.6296 37.9513 58.7569C37.9513 58.8843 37.9162 58.9787 37.8459 59.0402C37.7801 59.0973 37.7032 59.1259 37.6154 59.1259ZM37.3189 63.2432V59.7122H37.8986V63.2432H37.3189Z" fill="#C72E45"/>
<path d="M40.4337 63.3091C40.1175 63.3091 39.8386 63.2454 39.5971 63.1181C39.3555 62.9907 39.1645 62.7931 39.0239 62.5252C38.8878 62.2573 38.8197 61.9147 38.8197 61.4975C38.8197 61.0627 38.89 60.7091 39.0305 60.4368C39.1754 60.1645 39.3731 59.9647 39.6234 59.8373C39.8738 59.71 40.157 59.6463 40.4733 59.6463C40.6489 59.6463 40.8202 59.666 40.9871 59.7056C41.1584 59.7407 41.2967 59.7846 41.4021 59.8373L41.2243 60.3182C41.1189 60.2787 40.9959 60.2414 40.8553 60.2063C40.7148 60.1711 40.583 60.1536 40.4601 60.1536C39.7662 60.1536 39.4192 60.5993 39.4192 61.4909C39.4192 61.9169 39.5026 62.2441 39.6695 62.4725C39.8408 62.6965 40.0934 62.8085 40.4271 62.8085C40.616 62.8085 40.7851 62.7887 40.9344 62.7492C41.0837 62.7096 41.2199 62.6613 41.3428 62.6042V63.1181C41.2243 63.1796 41.0925 63.2257 40.9476 63.2564C40.807 63.2916 40.6357 63.3091 40.4337 63.3091Z" fill="#C72E45"/>
</svg>
