<svg width="17" height="24" viewBox="0 0 17 24" fill="none" xmlns="http://www.w3.org/2000/svg">
<g clip-path="url(#clip0)">
<path d="M15.8848 0.132993L7.09375 5.18799V18.813L15.8848 23.868C16.6108 24.284 17.4568 23.666 17.4568 22.723V1.27899C17.4568 0.333993 16.6098 -0.285007 15.8848 0.133993V0.132993Z" fill="#3E4348"/>
<path d="M6.00298 5.727L1.07698 5.737C0.470977 5.794 0.000976562 6.299 0.000976562 6.915C0.000976562 6.943 0.00197656 6.972 0.00397656 7V6.996V17.252C0.00197656 17.277 0.000976562 17.307 0.000976562 17.336C0.000976562 17.945 0.467976 18.445 1.06298 18.498H1.06698H6.00198V5.726L6.00298 5.727Z" fill="#3E4348"/>
</g>
<defs>
<clipPath id="clip0">
<rect width="17" height="24" fill="white"/>
</clipPath>
</defs>
</svg>
