<svg xmlns="http://www.w3.org/2000/svg" xmlns:xlink="http://www.w3.org/1999/xlink"><symbol id="icon-facebook" viewBox="0 0 12 24"><path d="m12.462.173v3.808h-2.265c-.079-.011-.171-.017-.264-.017-.542 0-1.036.203-1.411.538l.002-.002c-.275.384-.439.863-.439 1.381 0 .062.002.124.007.185v-.008 2.726h4.229l-.56 4.27h-3.663v10.946h-4.417v-10.947h-3.68v-4.269h3.68v-3.145c-.007-.102-.011-.222-.011-.342 0-1.478.575-2.822 1.513-3.82l-.003.003c.972-.92 2.288-1.485 3.735-1.485.09 0 .18.002.27.007h-.013c.118-.002.256-.003.395-.003 1.02 0 2.025.064 3.011.188l-.117-.012z"/></symbol><symbol id="icon-telegram" viewBox="0 0 24 24"><path d="m12 0c-6.627 0-12 5.373-12 12s5.373 12 12 12 12-5.373 12-12c0-6.627-5.373-12-12-12zm5.894 8.221-1.97 9.28c-.145.658-.537.818-1.084.508l-3-2.21-1.446 1.394c-.14.18-.357.295-.6.295-.002 0-.003 0-.005 0l.213-3.054 5.56-5.022c.24-.213-.054-.334-.373-.121l-6.869 4.326-2.96-.924c-.64-.203-.658-.64.135-.954l11.566-4.458c.538-.196 1.006.128.832.941z"/></symbol><symbol id="icon-twitter" viewBox="0 0 30 24"><path d="m29.55 2.85c-.841 1.224-1.848 2.26-3.004 3.106l-.036.025q.018.262.018.787c-.004 1.736-.264 3.41-.745 4.987l.032-.122c-.534 1.773-1.272 3.32-2.206 4.724l.04-.065c-.989 1.509-2.132 2.808-3.435 3.927l-.024.02c-1.372 1.153-2.978 2.083-4.73 2.704l-.108.033c-1.765.648-3.803 1.022-5.928 1.022-.045 0-.09 0-.134 0h.007c-.038 0-.082 0-.127 0-3.41 0-6.584-1.015-9.234-2.76l.063.039c.419.048.904.075 1.396.075h.07-.004c.037 0 .082.001.126.001 2.807 0 5.386-.975 7.417-2.606l-.023.018c-2.639-.05-4.861-1.777-5.65-4.157l-.012-.043c.342.057.738.091 1.141.094h.003c.567 0 1.116-.075 1.637-.216l-.044.01c-1.412-.284-2.615-1.034-3.47-2.08l-.008-.011c-.858-1.011-1.379-2.331-1.379-3.773 0-.028 0-.056.001-.084v.004-.075c.788.452 1.726.732 2.727.768h.011c-.822-.553-1.487-1.279-1.953-2.129l-.016-.031c-.46-.835-.731-1.83-.731-2.889 0-1.126.306-2.18.84-3.084l-.015.028c1.5 1.839 3.337 3.341 5.425 4.427l.095.045c2.022 1.067 4.402 1.743 6.927 1.864l.038.001c-.093-.415-.147-.892-.149-1.382v-.001c.004-3.345 2.717-6.055 6.062-6.055 1.74 0 3.309.733 4.415 1.908l.003.003c1.448-.284 2.735-.792 3.893-1.492l-.053.03c-.455 1.431-1.4 2.596-2.635 3.323l-.028.015c1.294-.148 2.475-.479 3.569-.967l-.077.031z"/></symbol><symbol id="icon-youtube-play" viewBox="0 0 34 24"><path d="m13.544 16.419 9.216-4.762-9.216-4.818zm3.524-16.419q3.2 0 6.181.086t4.371.181l1.39.08q.019 0 .32.029c.167.013.317.033.465.061l-.026-.004q.134.029.448.086c.205.035.388.088.561.158l-.018-.006q.229.095.534.248c.225.114.419.238.599.377l-.008-.006c.203.158.383.323.549.502l.003.003c.102.107.199.222.288.342l.007.01c.202.318.388.686.537 1.071l.015.044c.24.559.417 1.207.501 1.885l.004.035q.152 1.219.24 2.6t.105 2.16v3.352c.001.078.001.171.001.263 0 1.853-.125 3.678-.367 5.465l.023-.208c-.086.704-.255 1.344-.498 1.946l.018-.051c-.162.447-.368.834-.62 1.186l.01-.015-.266.32c-.169.182-.349.347-.542.497l-.01.008c-.171.134-.365.254-.571.353l-.019.008q-.305.143-.534.24c-.156.064-.338.117-.527.15l-.016.002q-.314.057-.457.086t-.438.057-.314.029q-4.775.372-11.937.372-3.943-.038-6.848-.124t-3.819-.143l-.934-.08-.686-.08c-.404-.05-.757-.117-1.102-.204l.062.013c-.376-.118-.697-.253-1.003-.415l.032.015c-.417-.205-.772-.467-1.075-.78l-.001-.001c-.102-.107-.199-.222-.288-.342l-.007-.01c-.202-.318-.388-.686-.537-1.071l-.015-.044c-.24-.559-.417-1.207-.501-1.885l-.004-.035q-.152-1.219-.24-2.6t-.105-2.16v-3.352c-.001-.078-.001-.171-.001-.263 0-1.853.125-3.678.367-5.465l-.023.208c.086-.704.255-1.344.498-1.946l-.018.051c.162-.447.368-.834.62-1.186l-.01.015.266-.32c.169-.182.349-.347.542-.497l.01-.008c.172-.134.365-.257.57-.362l.021-.01q.305-.152.534-.248c.156-.064.338-.117.527-.15l.016-.002q.314-.057.448-.086c.121-.024.271-.044.424-.056l.015-.001q.305-.029.32-.029 4.783-.35 11.946-.35z"/></symbol></svg>