<svg width="35" height="24" viewBox="0 0 35 24" fill="none" xmlns="http://www.w3.org/2000/svg">
<g clip-path="url(#clip0)">
<path d="M15.8808 0.132993L7.08984 5.18799V18.813L15.8808 23.868C16.6068 24.284 17.4528 23.666 17.4528 22.723V1.27899C17.4528 0.333993 16.6058 -0.285007 15.8808 0.133993V0.132993Z" fill="#3E4348"/>
<path d="M6.00005 5.727L1.07405 5.737C0.468047 5.794 -0.00195312 6.299 -0.00195312 6.915C-0.00195312 6.943 -0.000953125 6.972 0.00104688 7V6.996V17.252C-0.000953125 17.277 -0.00195312 17.307 -0.00195312 17.336C-0.00195312 17.945 0.465047 18.445 1.06005 18.498H1.06405H5.99905V5.726L6.00005 5.727Z" fill="#3E4348"/>
<path d="M26.2888 11.863V11.872C26.2888 12.748 26.0238 13.563 25.5698 14.239L25.5798 14.224C25.1328 14.924 24.4908 15.465 23.7298 15.775L23.7038 15.784C23.5918 15.836 23.4598 15.866 23.3208 15.866C23.3088 15.866 23.2968 15.866 23.2848 15.865H23.2868C23.2828 15.865 23.2788 15.865 23.2748 15.865C22.9858 15.865 22.7238 15.747 22.5358 15.557C22.3408 15.371 22.2188 15.109 22.2188 14.819C22.2188 14.812 22.2188 14.804 22.2188 14.797V14.798C22.2188 14.79 22.2188 14.781 22.2188 14.772C22.2188 14.556 22.2948 14.359 22.4208 14.204L22.4198 14.206C22.5568 14.043 22.7158 13.904 22.8948 13.794L22.9028 13.789C23.0921 13.6723 23.2811 13.5443 23.4698 13.405C23.6738 13.246 23.8368 13.045 23.9488 12.814L23.9528 12.804C24.0788 12.527 24.1518 12.204 24.1518 11.863C24.1518 11.522 24.0788 11.199 23.9468 10.908L23.9528 10.923C23.8368 10.682 23.6728 10.482 23.4728 10.325L23.4688 10.322C23.2794 10.1827 23.0904 10.0547 22.9018 9.938C22.7148 9.823 22.5548 9.684 22.4208 9.524L22.4188 9.521C22.2938 9.368 22.2178 9.17 22.2178 8.954C22.2178 8.945 22.2178 8.936 22.2178 8.927V8.928C22.2178 8.922 22.2178 8.914 22.2178 8.907C22.2178 8.617 22.3388 8.355 22.5338 8.169C22.7228 7.978 22.9838 7.86 23.2728 7.86H23.2848H23.2838C23.2938 7.86 23.3068 7.859 23.3188 7.859C23.4578 7.859 23.5888 7.889 23.7068 7.944L23.7008 7.942C24.4918 8.253 25.1358 8.793 25.5688 9.481L25.5778 9.497C26.0228 10.163 26.2868 10.981 26.2868 11.862V11.863H26.2888ZM30.5608 11.863V11.9C30.5608 13.643 30.0308 15.262 29.1238 16.606L29.1428 16.576C28.2358 17.972 26.9548 19.056 25.4418 19.701L25.3878 19.721C25.2648 19.771 25.1208 19.801 24.9708 19.803H24.9698C24.9648 19.803 24.9588 19.803 24.9518 19.803C24.6578 19.803 24.3918 19.682 24.2018 19.486C24.0068 19.299 23.8848 19.036 23.8848 18.745C23.8848 18.742 23.8848 18.738 23.8848 18.735V18.736C23.8848 18.735 23.8848 18.734 23.8848 18.733C23.8848 18.294 24.1518 17.918 24.5328 17.757L24.5398 17.754C25.0328 17.511 25.4478 17.266 25.8428 16.995L25.8078 17.018C27.4028 15.844 28.4268 13.973 28.4268 11.864C28.4268 9.755 27.4028 7.884 25.8258 6.722L25.8078 6.71C25.4478 6.461 25.0318 6.216 24.5998 6.001L24.5398 5.974C24.1528 5.811 23.8848 5.434 23.8848 4.995C23.8848 4.994 23.8848 4.993 23.8848 4.992C23.8928 4.406 24.3658 3.932 24.9518 3.924H24.9528C25.1088 3.924 25.2578 3.954 25.3948 4.009L25.3868 4.006C26.9538 4.671 28.2348 5.755 29.1218 7.119L29.1408 7.151C30.0288 8.465 30.5588 10.084 30.5588 11.827V11.866V11.864L30.5608 11.863ZM34.8318 11.863C34.8238 17.112 31.6708 21.623 27.1558 23.612L27.0738 23.644C26.9448 23.696 26.7958 23.726 26.6398 23.726C26.0538 23.718 25.5798 23.245 25.5718 22.659V22.658C25.5888 22.223 25.8488 21.854 26.2198 21.679L26.2268 21.676C26.3268 21.621 26.4498 21.562 26.5778 21.51L26.6028 21.501C26.7548 21.44 26.8788 21.381 26.9978 21.316L26.9778 21.326C27.5088 21.039 27.9558 20.757 28.3828 20.449L28.3448 20.475C29.6878 19.482 30.7688 18.213 31.5208 16.748L31.5488 16.688C32.2748 15.285 32.6998 13.625 32.6998 11.866C32.6998 10.107 32.2738 8.447 31.5208 6.984L31.5488 7.044C30.7698 5.518 29.6878 4.25 28.3738 3.277L28.3448 3.257C27.9548 2.975 27.5078 2.693 27.0428 2.439L26.9768 2.406C26.8768 2.351 26.7538 2.292 26.6268 2.24L26.6018 2.231C26.4498 2.17 26.3258 2.111 26.2068 2.046L26.2268 2.056C25.8498 1.879 25.5898 1.509 25.5728 1.076V1.074C25.5778 0.485 26.0518 0.008 26.6388 0H26.6398C26.7958 0 26.9448 0.03 27.0818 0.085L27.0738 0.082C31.6708 2.103 34.8248 6.614 34.8328 11.863V11.864L34.8318 11.863Z" fill="#3E4348"/>
</g>
<defs>
<clipPath id="clip0">
<rect width="35" height="24" fill="white"/>
</clipPath>
</defs>
</svg>
